<?xml version="1.0" encoding="UTF-8" standalone="no"?>
<svg width="60px" height="72px" viewBox="0 0 60 72" version="1.1" xmlns="http://www.w3.org/2000/svg" xmlns:xlink="http://www.w3.org/1999/xlink" xmlns:sketch="http://www.bohemiancoding.com/sketch/ns">
    <!-- Generator: Sketch Beta 3.4 (15009) - http://www.bohemiancoding.com/sketch -->
    <title>script icon</title>
    <desc>Created with Sketch Beta.</desc>
    <defs></defs>
    <g id="Page-1" stroke="none" stroke-width="1" fill="none" fill-rule="evenodd" sketch:type="MSPage">
        <g id="Artboard-1-Copy-3" sketch:type="MSArtboardGroup" transform="translate(-559.000000, -4341.000000)">
            <g id="5.-Free-updates-and-support" sketch:type="MSLayerGroup" transform="translate(210.000000, 4060.000000)">
                <g id="1/3---icon-list" transform="translate(0.000000, 275.000000)" sketch:type="MSShapeGroup">
                    <g id="1/3---use-it-everywhere" transform="translate(349.000000, 6.000000)">
                        <g id="script-icon">
                            <g id="Group">
                                <rect id="Rectangle-189" fill="#FFFFFF" x="0" y="0" width="60" height="72"></rect>
                                <path d="M13.75,49.75 L13.75,14.75 C13.75,10.61 17.1075,7.25 21.25,7.25 L51.25,7.25 M22.5,19.75 L36.25,19.75 M22.5,27.25 L36.25,27.25 M22.5,34.75 L36.25,34.75 M22.5,42.25 L36.25,42.25 M38.75,64.75 L8.75,64.75 C4.6075,64.75 1.25,61.3925 1.25,57.25 C1.25,53.11 4.6075,49.75 8.75,49.75 L38.75,49.75 C34.6075,49.75 31.25,53.11 31.25,57.25 C31.25,61.3925 34.6075,64.75 38.75,64.75 C42.89,64.75 46.25,61.3925 46.25,57.25 L46.25,13.5 C46.25,10.0475 49.045,7.25 52.5,7.25 C55.95,7.25 58.75,10.0475 58.75,14.75 L46.25,14.75" id="Shape" stroke="#6C01A4" stroke-width="2"></path>
                            </g>
                        </g>
                    </g>
                </g>
            </g>
        </g>
    </g>
</svg>