<?xml version="1.0" encoding="UTF-8" standalone="no"?>
<svg width="80px" height="72px" viewBox="0 0 80 72" version="1.1" xmlns="http://www.w3.org/2000/svg" xmlns:xlink="http://www.w3.org/1999/xlink" xmlns:sketch="http://www.bohemiancoding.com/sketch/ns">
    <!-- Generator: Sketch Beta 3.4 (15009) - http://www.bohemiancoding.com/sketch -->
    <title>unlimited_icon</title>
    <desc>Created with Sketch Beta.</desc>
    <defs></defs>
    <g id="Page-1" stroke="none" stroke-width="1" fill="none" fill-rule="evenodd" sketch:type="MSPage">
        <g id="Artboard-1-Copy-3" sketch:type="MSArtboardGroup" transform="translate(-210.000000, -4339.000000)">
            <g id="5.-Free-updates-and-support" sketch:type="MSLayerGroup" transform="translate(210.000000, 4060.000000)">
                <g id="1/3---icon-list" transform="translate(0.000000, 275.000000)" sketch:type="MSShapeGroup">
                    <g id="1/3---free-updates" transform="translate(0.000000, 4.000000)">
                        <g id="unlimited_icon">
                            <rect id="Rectangle-189" fill="#FFFFFF" x="0" y="0" width="80" height="72"></rect>
                            <path d="M68.403169,47.7033543 L40,47.7033543 L11.596831,47.7033543 L11.596831,14.2651992 L68.403169,14.2651992 L68.403169,47.7033543 L68.403169,47.7033543 Z" id="Stroke-433" stroke="#7C1AA1" stroke-width="2" stroke-linecap="round" stroke-linejoin="round"></path>
                            <path d="M4.91373239,54.3909853 L4.91373239,12.5932914 C4.91373239,9.82461216 7.15925352,7.57756813 9.92605634,7.57756813 L70.0739437,7.57756813 C72.8407465,7.57756813 75.0862676,9.82461216 75.0862676,12.5932914 L75.0862676,54.3909853" id="Stroke-434" stroke="#7C1AA1" stroke-width="2" stroke-linecap="round" stroke-linejoin="round"></path>
                            <path d="M48.3538732,54.3909853 L48.3538732,57.7348008 L31.6461268,57.7348008 L31.6461268,54.3909853 L1.5721831,54.3909853 L1.5721831,61.0786164 C1.5721831,62.9277463 3.06919718,64.4224319 4.91373239,64.4224319 L75.0862676,64.4224319 C76.9341444,64.4224319 78.4278169,62.9277463 78.4278169,61.0786164 L78.4278169,54.3909853 L48.3538732,54.3909853 L48.3538732,54.3909853 Z" id="Stroke-435" stroke="#7C1AA1" stroke-width="2" stroke-linecap="round" stroke-linejoin="round"></path>
                            <path d="M48.7657143,23 C46.8285714,23 45.0114286,23.72625 43.6485714,25.0475 L40.5457143,28.04875 L41.5485714,29.02875 L44.6514286,26.01875 C45.7485714,24.96 47.2057143,24.37375 48.7571429,24.37375 C50.3085714,24.37375 51.7657143,24.96 52.8628571,26.01875 C55.1257143,28.215 55.1257143,31.785 52.8628571,33.9725 C51.7657143,35.03125 50.3085714,35.6175 48.7571429,35.6175 C47.2057143,35.6175 45.7485714,35.03125 44.6514286,33.9725 L35.4285714,25.0475 C34.0571429,23.72625 32.24,23 30.3114286,23 C28.3742857,23 26.5571429,23.72625 25.1942857,25.0475 C22.3742857,27.7775 22.3742857,32.21375 25.1942857,34.94375 C26.5571429,36.265 28.3742857,36.99125 30.3114286,36.99125 C32.2485714,36.99125 34.0657143,36.265 35.4285714,34.94375 L38.5228571,31.9425 L37.52,30.97125 L34.4171429,33.9725 C33.32,35.03125 31.8628571,35.6175 30.3114286,35.6175 C28.76,35.6175 27.3028571,35.03125 26.2057143,33.9725 C23.9428571,31.77625 23.9428571,28.20625 26.2057143,26.01875 C27.3028571,24.96 28.76,24.37375 30.3114286,24.37375 C31.8628571,24.37375 33.32,24.96 34.4171429,26.01875 L43.64,34.94375 C45.0114286,36.265 46.8285714,36.99125 48.7571429,36.99125 C50.6942857,36.99125 52.5114286,36.265 53.8742857,34.94375 C56.7028571,32.2225 56.7028571,27.7775 53.8828571,25.0475 C52.52,23.72625 50.7028571,23 48.7657143,23 Z" id="Shape" fill="#7C1AA1"></path>
                        </g>
                    </g>
                </g>
            </g>
        </g>
    </g>
</svg>