<?xml version="1.0" encoding="UTF-8" standalone="no"?>
<svg width="60px" height="72px" viewBox="0 0 60 72" version="1.1" xmlns="http://www.w3.org/2000/svg" xmlns:xlink="http://www.w3.org/1999/xlink" xmlns:sketch="http://www.bohemiancoding.com/sketch/ns">
    <!-- Generator: Sketch Beta 3.4 (15009) - http://www.bohemiancoding.com/sketch -->
    <title>wrenches icon</title>
    <desc>Created with Sketch Beta.</desc>
    <defs></defs>
    <g id="Page-1" stroke="none" stroke-width="1" fill="none" fill-rule="evenodd" sketch:type="MSPage">
        <g id="Artboard-1-Copy-3" sketch:type="MSArtboardGroup" transform="translate(-908.000000, -1730.000000)">
            <g id="1.-Themes-built-as-frameworks" sketch:type="MSLayerGroup" transform="translate(211.000000, 1403.000000)">
                <g id="1/3---icon-list" transform="translate(0.000000, 327.000000)" sketch:type="MSShapeGroup">
                    <g id="1/3---source-" transform="translate(694.000000, 0.000000)">
                        <g id="wrenches-icon" transform="translate(3.000000, 0.000000)">
                            <g id="Group">
                                <rect id="Rectangle-189" fill="#FFFFFF" x="0" y="0" width="60" height="72"></rect>
                                <path d="M20.6309034,49.8525 L44.6634034,25.82 C48.3034034,27.3625 52.6659034,26.655 55.6359034,23.685 C58.6034034,20.72 59.3084034,16.5375 57.7684034,12.9 L52.9859034,17.87 L47.6834034,17.87 L47.6834034,12.195 L52.4709034,7.41 C48.8259034,5.8675 44.4609034,6.575 41.4934034,9.545 C38.5259034,12.515 37.8184034,16.875 39.3584034,20.5175 L15.3284034,44.55 C11.6884034,43.0075 7.3234034,43.715 4.3559034,46.685 C1.3884034,49.655 0.680903403,54.015 2.2209034,57.6575 L7.0059034,52.8725 L12.6809034,52.8725 L12.6809034,58.175 L7.7109034,62.96 C11.3534034,64.4975 15.6234034,63.79 18.5909034,60.825 C21.5584034,57.8625 22.1709034,53.49 20.6309034,49.8525 L20.6309034,49.8525 Z M29.9934034,29.8775 L20.6309034,20.5175 C22.1709034,16.875 21.4659034,12.515 18.4959034,9.545 C15.5309034,6.5775 11.3534034,5.87 7.7109034,7.4125 L12.6809034,12.1975 L12.6809034,17.8725 L7.0059034,17.8725 L2.2234034,12.9 C0.680903403,16.5375 1.3909034,20.81 4.3559034,23.78 C7.3209034,26.75 11.6884034,27.4075 15.3284034,25.87 L24.6934034,35.205 L29.9934034,29.8775 Z M29.9934034,40.4825 L39.3609034,49.8525 C37.8209034,53.495 38.5259034,57.86 41.4959034,60.825 C44.4634034,63.795 48.8284034,64.4975 52.4709034,62.96 L47.6834034,58.175 L47.6834034,52.8725 L52.9859034,52.8725 L57.7709034,57.6575 C59.3109034,54.015 58.6034034,49.655 55.6359034,46.685 C52.6684034,43.715 48.3034034,43.0075 44.6634034,44.55 L35.3009034,35.185 L29.9934034,40.4825 Z" id="Shape" stroke="#6C01A4" stroke-width="2"></path>
                            </g>
                        </g>
                    </g>
                </g>
            </g>
        </g>
    </g>
</svg>